HIERARCHY
ROOT hip
{
  OFFSET 4.47 85.1295 159.332
  CHANNELS 6 Xposition Yposition Zposition Zrotation Xrotation Yrotation
  JOINT abdomen
  {
    OFFSET 0 20.6881 -0.73152
    CHANNELS 3 Zrotation Xrotation Yrotation
    JOINT chest
    {
      OFFSET 0 11.7043 -0.48768
      CHANNELS 3 Zrotation Xrotation Yrotation
      JOINT neck
      {
        OFFSET 0 22.1894 -2.19456
        CHANNELS 3 Zrotation Xrotation Yrotation
        JOINT head
        {
          OFFSET -0.24384 7.07133 1.2192
          CHANNELS 3 Zrotation Xrotation Yrotation
          JOINT leftEye
          {
            OFFSET 4.14528 8.04674 8.04672
            CHANNELS 3 Zrotation Xrotation Yrotation
            End Site
            {
              OFFSET 1 0 0
            }
          }
          JOINT rightEye
          {
            OFFSET -3.6576 8.04674 8.04672
            CHANNELS 3 Zrotation Xrotation Yrotation
            End Site
            {
              OFFSET 1 0 0
            }
          }
        }
      }
      JOINT rCollar
      {
        OFFSET -2.68224 19.2634 -4.8768
        CHANNELS 3 Zrotation Xrotation Yrotation
        JOINT rShldr
        {
          OFFSET -8.77824 -1.95073 1.46304
          CHANNELS 3 Zrotation Xrotation Yrotation
          JOINT rForeArm
          {
            OFFSET -28.1742 -1.7115 0.48768
            CHANNELS 3 Zrotation Xrotation Yrotation
            JOINT rHand
            {
              OFFSET -22.5879 0.773209 7.07136
              CHANNELS 3 Zrotation Xrotation Yrotation
              JOINT rThumb1
              {
                OFFSET -1.2192 -0.487915 3.41376
                CHANNELS 3 Zrotation Xrotation Yrotation
                JOINT rThumb2
                {
                  OFFSET -3.37035 -0.52449 3.41376
                  CHANNELS 3 Zrotation Xrotation Yrotation
                  End Site
                  {
                    OFFSET -1.78271 -1.18214 1.43049
                  }
                }
              }
              JOINT rIndex1
              {
                OFFSET -7.75947 0.938293 5.60832
                CHANNELS 3 Zrotation Xrotation Yrotation
                JOINT rIndex2
                {
                  OFFSET -2.54057 -0.884171 1.56538
                  CHANNELS 3 Zrotation Xrotation Yrotation
                  End Site
                  {
                    OFFSET -1.62519 -0.234802 1.16502
                  }
                }
              }
              JOINT rMid1
              {
                OFFSET -8.24714 1.18213 3.41376
                CHANNELS 3 Zrotation Xrotation Yrotation
                JOINT rMid2
                {
                  OFFSET -3.10165 -0.590103 1.0647
                  CHANNELS 3 Zrotation Xrotation Yrotation
                  End Site
                  {
                    OFFSET -2.48547 -0.328903 0.83742
                  }
                }
              }
              JOINT rRing1
              {
                OFFSET -8.82822 0.546677 1.51678
                CHANNELS 3 Zrotation Xrotation Yrotation
                JOINT rRing2
                {
                  OFFSET -2.60934 -0.819778 -0.0198488
                  CHANNELS 3 Zrotation Xrotation Yrotation
                  End Site
                  {
                    OFFSET -2.33842 -0.294052 0.168128
                  }
                }
              }
              JOINT rPinky1
              {
                OFFSET -8.27202 -0.0477905 -0.4584
                CHANNELS 3 Zrotation Xrotation Yrotation
                JOINT rPinky2
                {
                  OFFSET -1.82734 -0.647385 -0.700984
                  CHANNELS 3 Zrotation Xrotation Yrotation
                  End Site
                  {
                    OFFSET -1.69225 -0.51767 -0.607171
                  }
                }
              }
            }
          }
        }
      }
      JOINT lCollar
      {
        OFFSET 2.68224 19.2634 -4.8768
        CHANNELS 3 Zrotation Xrotation Yrotation
        JOINT lShldr
        {
          OFFSET 8.77824 -1.95073 1.46304
          CHANNELS 3 Zrotation Xrotation Yrotation
          JOINT lForeArm
          {
            OFFSET 28.1742 -1.7115 0.48768
            CHANNELS 3 Zrotation Xrotation Yrotation
            JOINT lHand
            {
              OFFSET 22.5879 0.773209 7.07136
              CHANNELS 3 Zrotation Xrotation Yrotation
              JOINT lThumb1
              {
                OFFSET 1.2192 -0.487915 3.41376
                CHANNELS 3 Zrotation Xrotation Yrotation
                JOINT lThumb2
                {
                  OFFSET 3.37035 -0.52449 3.41376
                  CHANNELS 3 Zrotation Xrotation Yrotation
                  End Site
                  {
                    OFFSET 1.78271 -1.18214 1.43049
                  }
                }
              }
              JOINT lIndex1
              {
                OFFSET 7.75947 0.938293 5.60832
                CHANNELS 3 Zrotation Xrotation Yrotation
                JOINT lIndex2
                {
                  OFFSET 2.54057 -0.884171 1.56538
                  CHANNELS 3 Zrotation Xrotation Yrotation
                  End Site
                  {
                    OFFSET 1.62519 -0.234802 1.16502
                  }
                }
              }
              JOINT lMid1
              {
                OFFSET 8.24714 1.18213 3.41376
                CHANNELS 3 Zrotation Xrotation Yrotation
                JOINT lMid2
                {
                  OFFSET 3.10165 -0.590103 1.0647
                  CHANNELS 3 Zrotation Xrotation Yrotation
                  End Site
                  {
                    OFFSET 2.48547 -0.328903 0.83742
                  }
                }
              }
              JOINT lRing1
              {
                OFFSET 8.82822 0.546677 1.51678
                CHANNELS 3 Zrotation Xrotation Yrotation
                JOINT lRing2
                {
                  OFFSET 2.60934 -0.819778 -0.0198488
                  CHANNELS 3 Zrotation Xrotation Yrotation
                  End Site
                  {
                    OFFSET 2.33842 -0.294052 0.168128
                  }
                }
              }
              JOINT lPinky1
              {
                OFFSET 8.27202 -0.0477905 -0.4584
                CHANNELS 3 Zrotation Xrotation Yrotation
                JOINT lPinky2
                {
                  OFFSET 1.82734 -0.647385 -0.700984
                  CHANNELS 3 Zrotation Xrotation Yrotation
                  End Site
                  {
                    OFFSET 1.69225 -0.51767 -0.607171
                  }
                }
              }
            }
          }
        }
      }
    }
  }
  JOINT rButtock
  {
    OFFSET -8.77824 4.35084 1.2192
    CHANNELS 3 Zrotation Xrotation Yrotation
    JOINT rThigh
    {
      OFFSET 0 -1.70687 -2.19456
      CHANNELS 3 Zrotation Xrotation Yrotation
      JOINT rShin
      {
        OFFSET 0 -36.8199 0.73152
        CHANNELS 3 Zrotation Xrotation Yrotation
        JOINT rFoot
        {
          OFFSET 0.73152 -45.1104 -5.12064
          CHANNELS 3 Zrotation Xrotation Yrotation
          End Site
          {
            OFFSET -1.1221 -3.69964 12.103
          }
        }
      }
    }
  }
  JOINT lButtock
  {
    OFFSET 8.77824 4.35084 1.2192
    CHANNELS 3 Zrotation Xrotation Yrotation
    JOINT lThigh
    {
      OFFSET 0 -1.70687 -2.19456
      CHANNELS 3 Zrotation Xrotation Yrotation
      JOINT lShin
      {
        OFFSET 0 -36.8199 0.73152
        CHANNELS 3 Zrotation Xrotation Yrotation
        JOINT lFoot
        {
          OFFSET -0.73152 -45.1104 -5.12064
          CHANNELS 3 Zrotation Xrotation Yrotation
          End Site
          {
            OFFSET 1.1221 -3.69964 12.103
          }
        }
      }
    }
  }
}
MOTION
Frames:	7
Frame Time:	0.00833333
49.3278 85.5069 -149.421 -1.70035 0.00694269 0.0323289 2.23594 -0.000459339 0.0604482 0.615863 0.0089749 0.106602 1.04278e-015 0 -5.96354e-016 3.21472e-015 3.18055e-015 -1.66793e-015 -0 0 0 -0 0 0 3.95956e-016 -5.22198e-017 -9.93923e-017 1.23211e-014 -1.2424e-015 -4.96962e-015 1.79304e-013 -9.08446e-014 -1.20861e-013 2.09648e-012 -1.51573e-013 -1.14182e-012 4.94478e-012 -5.24996e-013 -2.72255e-012 8.53064e-012 -9.09639e-013 -4.69688e-012 4.95173e-012 -5.23201e-013 -2.72892e-012 7.73091 5.47488 0.417314 4.94467e-012 -5.2509e-013 -2.71937e-012 2.90554 0.965183 0.102902 4.94866e-012 -5.25189e-013 -2.71858e-012 10.2786 0.731801 0.0259123 4.93602e-012 -5.22804e-013 -2.70983e-012 2.22167 -0.733487 -0.20892 2.99819e-016 -5.31904e-017 -3.97569e-016 8.36099e-015 -1.11816e-015 -6.36111e-015 1.86311e-013 1.33186e-014 -1.24042e-013 2.0883e-012 -2.5032e-013 -1.11956e-012 4.94496e-012 -5.12656e-013 -2.70983e-012 8.55569e-012 -8.90555e-013 -4.67383e-012 4.9394e-012 -5.10081e-013 -2.70029e-012 -7.73091 5.47488 -0.417314 4.94546e-012 -5.12864e-013 -2.70983e-012 -2.90554 0.965183 -0.102902 4.93613e-012 -5.12367e-013 -2.70745e-012 -10.2786 0.731801 -0.0259123 4.94735e-012 -5.12467e-013 -2.72255e-012 -2.22167 -0.733487 0.20892 -2.03217e-016 0 -3.88251e-019 2.21185 -7.80169 -0.22426 0.00521972 8.55967 0.135865 -0.54895 -0.766583 0.0462488 2.03217e-016 0 3.88251e-019 1.18573 -1.92859 -0.00257109 0.00907839 -2.07858 0.0748695 0.511928 3.99847 -0.140302 
43.8159 85.0533 -155.313 -4.90721 7.13514 -23.6664 1.79177 -2.48486 1.35615 0.153845 1.18746 0.509797 0.858193 4.46565 1.32122 0.0980943 -8.53909 2.67678 -0 0 0 -0 0 0 1.93695e-014 3.01919e-013 4.43527e-014 14.9743 2.85994 -1.01437 -3.57393 -1.51298 5.69751 0.0345674 4.12712 0.57461 -4.03277e-010 -7.24883e-010 2.72349e-010 -6.93423e-010 -1.25272e-009 4.76357e-010 -4.03272e-010 -7.24884e-010 2.72342e-010 7.73091 5.47488 0.417314 -4.03277e-010 -7.24882e-010 2.72352e-010 2.90554 0.965183 0.102902 -4.03274e-010 -7.24882e-010 2.72353e-010 10.2786 0.731801 0.0259123 -4.03285e-010 -7.24879e-010 2.7236e-010 2.22167 -0.733487 -0.20892 1.92512e-014 3.01919e-013 4.41271e-014 -12.0262 9.67788 -2.63164 3.84173 -1.67656 -6.07328 -0.00107024 -0.733491 0.103056 -1.7862e-010 2.54136e-010 2.00327e-011 -3.08325e-010 4.37882e-010 3.38316e-011 -1.78626e-010 2.54138e-010 2.00441e-011 -7.73091 5.47488 -0.417314 -1.7862e-010 2.54134e-010 2.00346e-011 -2.90554 0.965183 -0.102902 -1.78627e-010 2.54134e-010 2.00357e-011 -10.2786 0.731801 -0.0259123 -1.78618e-010 2.54135e-010 2.00218e-011 -2.22167 -0.733487 0.20892 -2.03217e-016 0 -3.88251e-019 -0.0907242 -5.3316 3.62498 0.0033954 7.88461 0.0944719 -1.28537 -7.60823 -7.71209 2.03217e-016 0 3.88251e-019 5.52935 -0.237473 -1.29101 0.0013764 -2.17524 0.0100809 0.694985 -2.06207 2.05678 
43.8842 85.0578 -155.472 -2.58841 10.4667 -49.4188 1.43457 -5.10418 2.73834 -0.355097 2.43443 0.938268 1.54663 9.18576 2.74373 1.09715 -17.5201 5.70668 -0 0 0 -0 0 0 4.06398e-014 6.40818e-013 9.45687e-014 31.0668 5.89687 -2.12606 -7.04775 -3.07553 11.7678 -0.0197653 8.47803 1.19056 -8.63796e-010 -1.57101e-009 6.02321e-010 -1.48503e-009 -2.71447e-009 1.05303e-009 -8.63795e-010 -1.57102e-009 6.02313e-010 7.73091 5.47488 0.417314 -8.63797e-010 -1.57101e-009 6.02325e-010 2.90554 0.965183 0.102902 -8.63794e-010 -1.57101e-009 6.02326e-010 10.2786 0.731801 0.0259123 -8.63804e-010 -1.57101e-009 6.02331e-010 2.22167 -0.733487 -0.20892 4.04981e-014 6.40818e-013 9.44227e-014 -23.837 19.8656 -5.67919 7.52496 -3.39017 -12.5199 0.000673835 -1.49658 0.210328 -3.95584e-010 5.55493e-010 4.21795e-011 -6.82906e-010 9.57205e-010 7.11733e-011 -3.9559e-010 5.55494e-010 4.21928e-011 -7.73091 5.47488 -0.417314 -3.95585e-010 5.55488e-010 4.21835e-011 -2.90554 0.965183 -0.102902 -3.9559e-010 5.55488e-010 4.21832e-011 -10.2786 0.731801 -0.0259123 -3.95583e-010 5.5549e-010 4.21706e-011 -2.22167 -0.733487 0.20892 -2.03217e-016 0 -3.88251e-019 -2.89758 -2.71099 7.65471 0.000400639 7.1711 0.0508873 -4.10759 -14.401 -16.2937 2.03217e-016 0 3.88251e-019 10.1953 1.55053 -2.64072 -0.00699203 -2.27609 -0.0584254 1.39722 -8.42551 4.4281 
43.9326 85.0509 -155.583 1.45688 7.60494 -71.9699 1.24269 -7.43799 3.97725 -0.82003 3.54363 1.31838 1.94263 13.3681 4.06187 2.89576 -25.3813 8.79607 -0 0 0 -0 0 0 5.73165e-014 9.05862e-013 1.33257e-013 45.2294 8.56901 -3.07367 -9.83177 -4.35973 17.1377 -0.149627 12.3763 1.76028 -1.21972e-009 -2.1736e-009 8.22492e-010 -2.09733e-009 -3.75633e-009 1.43847e-009 -1.21972e-009 -2.17361e-009 8.22483e-010 7.73091 5.47488 0.417314 -1.21972e-009 -2.1736e-009 8.22496e-010 2.90554 0.965183 0.102902 -1.21972e-009 -2.1736e-009 8.22496e-010 10.2786 0.731801 0.0259123 -1.21973e-009 -2.17359e-009 8.225e-010 2.22167 -0.733487 -0.20892 5.71538e-014 9.05862e-013 1.33176e-013 -33.103 28.7708 -8.88683 10.4757 -4.80408 -18.2785 0.00471006 -2.20045 0.309371 -5.45749e-010 7.63433e-010 6.55179e-011 -9.42086e-010 1.31543e-009 1.10842e-010 -5.45755e-010 7.63434e-010 6.55329e-011 -7.73091 5.47488 -0.417314 -5.45751e-010 7.63427e-010 6.55236e-011 -2.90554 0.965183 -0.102902 -5.45753e-010 7.63427e-010 6.55221e-011 -10.2786 0.731801 -0.0259123 -5.45748e-010 7.63429e-010 6.55106e-011 -2.22167 -0.733487 0.20892 -2.03217e-016 0 -3.88251e-019 -5.68587 -0.415017 11.2725 -0.00319717 6.53447 0.0121122 -8.43267 -19.7105 -24.5481 2.03217e-016 0 3.88251e-019 14.4448 3.13741 -3.87367 -0.0146839 -2.36853 -0.119522 2.48429 -14.0956 6.64726 
44.0329 85.0251 -155.743 3.586 1.98982 -86.4559 1.22274 -9.07301 4.8297 -1.13932 4.30915 1.57551 2.0595 16.2333 5.02513 4.78268 -30.666 11.3038 -0 0 0 -0 0 0 6.25094e-014 9.86269e-013 1.43125e-013 54.3322 10.3411 -3.57912 -11.5339 -5.12707 20.7114 -0.289952 15.1477 2.18042 -1.31415e-009 -2.16732e-009 7.68158e-010 -2.26136e-009 -3.74843e-009 1.34579e-009 -1.31416e-009 -2.16733e-009 7.68148e-010 7.73091 5.47488 0.417314 -1.31416e-009 -2.16732e-009 7.68161e-010 2.90554 0.965183 0.102902 -1.31415e-009 -2.16732e-009 7.68161e-010 10.2786 0.731801 0.0259123 -1.31416e-009 -2.16731e-009 7.68164e-010 2.22167 -0.733487 -0.20892 6.23314e-014 9.86269e-013 1.43075e-013 -38.2332 34.7211 -11.5414 12.3351 -5.68649 -22.2604 0.00932666 -2.75629 0.387674 -5.28917e-010 7.37835e-010 9.18353e-011 -9.12764e-010 1.2709e-009 1.56331e-010 -5.28922e-010 7.3783e-010 9.18512e-011 -7.73091 5.47488 -0.417314 -5.28918e-010 7.37828e-010 9.18417e-011 -2.90554 0.965183 -0.102902 -5.2892e-010 7.37828e-010 9.18393e-011 -10.2786 0.731801 -0.0259123 -5.28916e-010 7.37831e-010 9.1829e-011 -2.22167 -0.733487 0.20892 -2.03217e-016 0 -3.88251e-019 -7.73412 1.11848 13.8742 -0.00623242 6.09003 -0.014922 -12.466 -22.8063 -30.7361 2.03217e-016 0 3.88251e-019 17.4953 4.22885 -4.80745 -0.0202354 -2.43998 -0.162074 3.52417 -18.1203 8.27872 
44.129 85.0118 -155.95 4.06824 -1.103 -91.6726 1.34615 -9.74383 5.12171 -1.23773 4.59132 1.6587 2.00204 17.2779 5.43908 5.75905 -32.5098 12.4436 -0 0 0 -0 0 0 5.1137e-014 7.87061e-013 1.03036e-013 56.2184 10.9289 -3.40185 -11.9704 -5.27882 21.7076 -0.360563 16.3211 2.36282 -9.68354e-010 -1.02042e-009 1.78229e-010 -1.67183e-009 -1.77592e-009 3.21182e-010 -9.68356e-010 -1.02042e-009 1.78219e-010 7.73091 5.47488 0.417314 -9.68358e-010 -1.02041e-009 1.78231e-010 2.90554 0.965183 0.102902 -9.68352e-010 -1.02041e-009 1.7823e-010 10.2786 0.731801 0.0259123 -9.6836e-010 -1.02041e-009 1.78233e-010 2.22167 -0.733487 -0.20892 5.09493e-014 7.87063e-013 1.0296e-013 -38.8653 36.742 -12.6338 12.9761 -5.97309 -23.7194 0.0124417 -3.06021 0.430542 -1.67623e-010 1.77544e-010 1.29149e-010 -2.88194e-010 3.03914e-010 2.2223e-010 -1.67626e-010 1.77528e-010 1.29165e-010 -7.73091 5.47488 -0.417314 -1.67624e-010 1.7754e-010 1.29155e-010 -2.90554 0.965183 -0.102902 -1.67627e-010 1.77539e-010 1.29152e-010 -10.2786 0.731801 -0.0259123 -1.67623e-010 1.77541e-010 1.29143e-010 -2.22167 -0.733487 0.20892 -2.03217e-016 0 -3.88251e-019 -8.43031 1.63276 15.0679 -0.00758892 5.91325 -0.0257327 -14.3375 -23.8958 -33.3328 2.03217e-016 0 3.88251e-019 18.8082 4.63013 -5.3278 -0.0225783 -2.48274 -0.17851 4.00837 -19.9331 8.89503 
44.114 85.0134 -155.986 4.12348 -0.804104 -91.1029 1.54642 -9.72865 5.00766 -1.17501 4.52849 1.61729 1.87118 17.028 5.44005 5.80352 -31.9546 12.4211 -0 0 0 -0 0 0 2.79553e-014 3.89135e-013 2.77211e-014 52.9404 10.6676 -2.73542 -11.5483 -5.01726 20.8595 -0.359933 16.3551 2.36766 -3.1163e-010 9.27496e-010 -7.87063e-010 -5.50032e-010 1.57632e-009 -1.35659e-009 -3.11631e-010 9.27489e-010 -7.87073e-010 7.73091 5.47488 0.417314 -3.11637e-010 9.27496e-010 -7.87064e-010 2.90554 0.965183 0.102902 -3.11626e-010 9.275e-010 -7.87066e-010 10.2786 0.731801 0.0259123 -3.11635e-010 9.27503e-010 -7.87063e-010 2.22167 -0.733487 -0.20892 2.77622e-014 3.89137e-013 2.75783e-014 -36.6313 36.0222 -12.3606 12.8115 -5.87447 -23.3682 0.0137773 -3.18633 0.448352 4.34444e-010 -7.54778e-010 1.73993e-010 7.52443e-010 -1.3049e-009 3.02126e-010 4.34445e-010 -7.5481e-010 1.74008e-010 -7.73091 5.47488 -0.417314 4.34444e-010 -7.54779e-010 1.73996e-010 -2.90554 0.965183 -0.102902 4.34438e-010 -7.54778e-010 1.73993e-010 -10.2786 0.731801 -0.0259123 4.34444e-010 -7.54778e-010 1.73985e-010 -2.22167 -0.733487 0.20892 -2.03217e-016 0 -3.88251e-019 -8.09006 1.4371 15.2488 -0.00753222 5.92772 -0.0249728 -14.2685 -23.8719 -33.1957 2.03217e-016 0 3.88251e-019 18.8607 4.54053 -5.55013 -0.0225749 -2.50497 -0.176296 3.97039 -20.1861 8.73022 
